<?xml version="1.0" standalone="no"?>
<!DOCTYPE svg PUBLIC "-//W3C//DTD SVG 20010904//EN"
 "http://www.w3.org/TR/2001/REC-SVG-20010904/DTD/svg10.dtd">
<svg version="1.0" xmlns="http://www.w3.org/2000/svg"
 width="1024.000000pt" height="1024.000000pt" viewBox="0 0 1024.000000 1024.000000"
 preserveAspectRatio="xMidYMid meet">

<g transform="translate(0.000000,1024.000000) scale(0.100000,-0.100000)"
fill="#000000" stroke="none">
<path d="M0 5120 l0 -5120 5120 0 5120 0 0 5120 0 5120 -5120 0 -5120 0 0
-5120z m6643 2260 c9 0 1 -166 -9 -222 -5 -26 -9 -28 -57 -28 -133 0 -289 -48
-360 -110 -54 -48 -90 -114 -116 -215 -12 -44 -59 -314 -105 -600 -150 -923
-304 -1807 -340 -1945 -204 -790 -620 -1258 -1234 -1391 -135 -29 -436 -37
-578 -15 -175 26 -375 111 -485 206 -63 53 -144 175 -188 278 -34 83 -36 93
-36 202 0 100 4 126 28 196 48 141 133 253 252 332 101 68 159 87 270 87 80 0
97 -4 156 -31 106 -50 129 -99 129 -270 0 -84 -8 -152 -30 -271 -63 -325 -35
-419 127 -430 177 -13 341 104 413 294 48 127 50 137 195 1033 47 289 123 752
170 1030 191 1138 187 1114 182 1235 -7 172 -55 259 -179 319 -72 35 -211 66
-300 66 -20 0 -40 5 -43 10 -6 9 13 228 20 240 2 3 1696 4 2118 0z"/>
</g>
</svg>
